<svg width="815" height="480" viewBox="0 0 815 480" fill="none" xmlns="http://www.w3.org/2000/svg">
<g clip-path="url(#clip0)">
<path d="M330.167 478.846H325.334C324.272 478.846 323.254 478.424 322.503 477.673C321.752 476.922 321.33 475.904 321.33 474.842V461.171H330.167L333.719 474.195C333.868 474.742 333.889 475.315 333.78 475.87C333.671 476.426 333.436 476.949 333.093 477.399C332.749 477.849 332.306 478.214 331.799 478.465C331.291 478.715 330.733 478.846 330.167 478.846H330.167Z" fill="#585D70"/>
<path d="M623.602 150.644H74.4879C68.6207 150.644 63.8644 155.401 63.8644 161.269V356.946C63.8644 362.814 68.6207 367.571 74.4879 367.571H623.602C629.469 367.571 634.226 362.814 634.226 356.946V161.269C634.226 155.401 629.469 150.644 623.602 150.644Z" fill="#493657"/>
<path d="M763.852 0.401733H12.9639C6.91329 0.401733 2.0083 5.30738 2.0083 11.3588V409.64C2.0083 415.692 6.91329 420.597 12.9639 420.597H763.852C769.903 420.597 774.807 415.692 774.807 409.64V11.3588C774.807 5.30738 769.903 0.401733 763.852 0.401733Z" stroke="#3F3D56" stroke-miterlimit="10"/>
<path d="M0 29.7587H772.799" stroke="#3F3D56" stroke-miterlimit="10"/>
<path d="M0 80.745H772.799" stroke="#3F3D56" stroke-miterlimit="10"/>
<path d="M19.6814 26.1116C24.1181 26.1116 27.7147 22.5145 27.7147 18.0772C27.7147 13.64 24.1181 10.0429 19.6814 10.0429C15.2448 10.0429 11.6482 13.64 11.6482 18.0772C11.6482 22.5145 15.2448 26.1116 19.6814 26.1116Z" fill="#D05345"/>
<path d="M44.5845 26.1116C49.0212 26.1116 52.6178 22.5145 52.6178 18.0772C52.6178 13.64 49.0212 10.0429 44.5845 10.0429C40.1479 10.0429 36.5513 13.64 36.5513 18.0772C36.5513 22.5145 40.1479 26.1116 44.5845 26.1116Z" fill="#CEC85B"/>
<path d="M69.4876 26.1116C73.9242 26.1116 77.5209 22.5145 77.5209 18.0772C77.5209 13.64 73.9242 10.0429 69.4876 10.0429C65.051 10.0429 61.4543 13.64 61.4543 18.0772C61.4543 22.5145 65.051 26.1116 69.4876 26.1116Z" fill="#76AB4D"/>
<path d="M22.0915 22.8979C26.5281 22.8979 30.1247 19.3008 30.1247 14.8635C30.1247 10.4263 26.5281 6.82919 22.0915 6.82919C17.6548 6.82919 14.0582 10.4263 14.0582 14.8635C14.0582 19.3008 17.6548 22.8979 22.0915 22.8979Z" stroke="#3F3D56" stroke-miterlimit="10"/>
<path d="M46.9946 22.8979C51.4312 22.8979 55.0278 19.3008 55.0278 14.8635C55.0278 10.4263 51.4312 6.82919 46.9946 6.82919C42.5579 6.82919 38.9613 10.4263 38.9613 14.8635C38.9613 19.3008 42.5579 22.8979 46.9946 22.8979Z" stroke="#3F3D56" stroke-miterlimit="10"/>
<path d="M71.8976 22.8979C76.3343 22.8979 79.9309 19.3008 79.9309 14.8635C79.9309 10.4263 76.3343 6.82919 71.8976 6.82919C67.461 6.82919 63.8644 10.4263 63.8644 14.8635C63.8644 19.3008 67.461 22.8979 71.8976 22.8979Z" stroke="#3F3D56" stroke-miterlimit="10"/>
<path d="M180.748 75.5227C189.622 75.5227 196.815 68.3285 196.815 59.454C196.815 50.5796 189.622 43.3854 180.748 43.3854C171.875 43.3854 164.682 50.5796 164.682 59.454C164.682 68.3285 171.875 75.5227 180.748 75.5227Z" fill="#493657"/>
<path d="M184.765 71.5055C193.638 71.5055 200.831 64.3114 200.831 55.4369C200.831 46.5624 193.638 39.3682 184.765 39.3682C175.892 39.3682 168.698 46.5624 168.698 55.4369C168.698 64.3114 175.892 71.5055 184.765 71.5055Z" stroke="#3F3D56" stroke-miterlimit="10"/>
<path d="M480.852 51.018H410.036C407.63 51.018 405.679 52.9688 405.679 55.3752V68.3535C405.679 70.7599 407.63 72.7107 410.036 72.7107H480.852C483.258 72.7107 485.209 70.7599 485.209 68.3535V55.3752C485.209 52.9688 483.258 51.018 480.852 51.018Z" fill="#8F5A70"/>
<path d="M594.121 51.018H523.305C520.899 51.018 518.948 52.9688 518.948 55.3752V68.3535C518.948 70.7599 520.899 72.7107 523.305 72.7107H594.121C596.527 72.7107 598.478 70.7599 598.478 68.3535V55.3752C598.478 52.9688 596.527 51.018 594.121 51.018Z" fill="#8F5A70"/>
<path d="M487.44 44.5905H414.695C412.821 44.5905 411.303 46.1094 411.303 47.983V62.8908C411.303 64.7644 412.821 66.2832 414.695 66.2832H487.44C489.313 66.2832 490.832 64.7644 490.832 62.8908V47.983C490.832 46.1094 489.313 44.5905 487.44 44.5905Z" stroke="#3F3D56" stroke-miterlimit="10"/>
<path d="M600.709 44.5905H527.964C526.09 44.5905 524.572 46.1094 524.572 47.983V62.8908C524.572 64.7644 526.09 66.2832 527.964 66.2832H600.709C602.582 66.2832 604.101 64.7644 604.101 62.8908V47.983C604.101 46.1094 602.582 44.5905 600.709 44.5905Z" stroke="#3F3D56" stroke-miterlimit="10"/>
<path d="M650.289 132.968H105.64C98.5401 132.968 92.7841 138.725 92.7841 145.826V337.037C92.7841 344.138 98.5401 349.895 105.64 349.895H650.289C657.389 349.895 663.145 344.138 663.145 337.037V145.826C663.145 138.725 657.389 132.968 650.289 132.968Z" stroke="#3F3D56" stroke-miterlimit="10"/>
<path d="M326.15 229.719V220.39L359.022 245.047L351.455 250.269M363.025 293.326C369.879 289.647 375.872 284.551 380.604 278.376C385.336 272.202 388.699 265.09 390.469 257.514C392.239 249.938 392.376 242.072 390.871 234.439C389.365 226.807 386.251 219.582 381.737 213.246C377.222 206.911 371.411 201.609 364.688 197.695C357.966 193.78 350.487 191.342 342.749 190.543C335.012 189.744 327.192 190.602 319.812 193.06C312.432 195.518 305.659 199.52 299.946 204.799L363.025 293.326Z" stroke="#3F3D56" stroke-miterlimit="10"/>
<path d="M329.074 195.877C318.239 195.877 307.646 199.091 298.636 205.111C289.627 211.132 282.605 219.69 278.458 229.702C274.311 239.715 273.226 250.732 275.34 261.361C277.454 271.99 282.672 281.753 290.334 289.416C297.996 297.079 307.758 302.298 318.386 304.412C329.014 306.527 340.029 305.441 350.04 301.294C360.051 297.147 368.608 290.124 374.628 281.113C380.648 272.102 383.861 261.508 383.861 250.671C383.854 236.141 378.08 222.208 367.807 211.933C357.534 201.659 343.603 195.884 329.074 195.877ZM318.117 275.328V226.014L350.989 250.671L318.117 275.328Z" fill="#8F5A70"/>
<path d="M307.753 346.042C307.753 346.042 297.913 380.273 297.486 395.249C297.058 410.225 295.346 434.187 296.63 440.177C297.913 446.168 301.764 458.149 301.764 458.149C301.764 458.149 309.893 448.307 312.887 453.87C312.887 453.87 312.46 442.317 310.32 438.894C310.32 438.894 311.176 420.922 311.176 414.504C311.176 408.086 321.872 378.561 322.728 378.133C323.583 377.706 326.15 386.263 324.011 405.09C321.872 423.918 320.161 456.874 320.161 460.297C320.161 463.72 325.295 470.567 328.717 468.427C332.14 466.288 334.279 447.879 334.279 447.879C334.279 447.879 337.274 409.369 338.985 405.09C340.697 400.812 349.681 351.604 342.836 347.753C335.99 343.902 307.753 346.042 307.753 346.042Z" fill="#1C2826"/>
<path d="M315.027 457.293C314.599 459.004 312.887 467.134 312.887 469.702C312.887 472.269 314.599 476.976 307.326 478.687C300.241 480.356 301.276 475.932 300.147 473.33C300.117 473.262 300.087 473.193 300.052 473.125C298.769 470.557 301.764 457.293 302.192 457.293C302.443 457.293 304.466 453.896 306.093 451.093C306.433 450.496 306.905 449.984 307.471 449.595C308.038 449.206 308.685 448.95 309.365 448.847C310.045 448.745 310.739 448.797 311.395 449.001C312.051 449.205 312.653 449.555 313.155 450.025C313.83 450.679 314.366 451.463 314.731 452.33C315.096 453.196 315.283 454.128 315.279 455.068C315.292 455.817 315.207 456.565 315.027 457.293Z" fill="#585D70"/>
<path opacity="0.1" d="M315.027 457.293C314.599 459.004 312.887 467.134 312.887 469.702C312.887 472.269 314.599 476.976 307.326 478.687C300.241 480.356 301.276 475.932 300.147 473.33C301.375 470.138 304.356 463.279 306.47 457.293C308.335 452.004 312.922 453.729 315.279 455.068C315.292 455.817 315.207 456.565 315.027 457.293Z" fill="black"/>
<path d="M327.434 279.719C332.396 279.719 336.418 275.696 336.418 270.733C336.418 265.771 332.396 261.748 327.434 261.748C322.472 261.748 318.449 265.771 318.449 270.733C318.449 275.696 322.472 279.719 327.434 279.719Z" fill="#FBBEBE"/>
<path d="M320.161 272.445L318.877 286.565L334.279 289.133C334.279 289.133 332.568 276.724 333.851 274.157C335.135 271.589 320.161 272.445 320.161 272.445Z" fill="#FBBEBE"/>
<path d="M332.14 283.57C332.14 283.57 319.305 282.286 318.449 283.57C317.89 284.625 317.597 285.8 317.594 286.993C317.594 286.993 312.46 289.133 311.604 288.277C310.748 287.421 309.893 284.854 307.326 285.71C304.759 286.565 299.625 301.969 299.625 301.969C299.625 301.969 300.908 297.262 303.047 315.234C305.186 333.205 304.759 344.33 305.186 345.614C305.614 346.898 303.047 354.6 318.449 354.6C333.851 354.6 344.975 353.744 344.975 350.749C344.975 347.753 342.408 334.917 344.975 325.503C347.542 316.09 351.392 303.253 351.392 303.253L346.258 286.565C346.258 286.565 341.124 285.282 339.841 287.421C338.557 289.56 335.135 289.133 335.135 289.133C335.135 289.133 334.707 283.998 332.14 283.57Z" fill="#585D70"/>
<path d="M307.753 286.565L297.058 281.858C297.058 281.858 276.95 266.455 277.805 252.762C277.805 252.762 270.96 246.344 270.532 253.19C270.104 260.036 272.243 275.44 277.377 280.575C282.511 285.71 300.052 301.969 302.62 302.397C305.187 302.825 307.753 286.565 307.753 286.565Z" fill="#585D70"/>
<path d="M271.388 254.046C271.388 254.046 263.259 231.796 270.532 232.651C277.805 233.507 276.094 242.921 276.094 242.921V254.046L271.388 254.046Z" fill="#FBBEBE"/>
<path d="M344.547 287.421L355.243 282.714C355.243 282.714 375.351 267.31 374.495 253.618C374.495 253.618 381.341 247.2 381.768 254.046C382.196 260.892 380.057 276.296 374.923 281.431C369.789 286.565 352.248 302.825 349.681 303.253C347.114 303.681 344.547 287.421 344.547 287.421Z" fill="#585D70"/>
<path d="M380.913 254.902C380.913 254.902 389.041 232.651 381.768 233.507C374.495 234.363 376.206 243.776 376.206 243.776V254.902L380.913 254.902Z" fill="#FBBEBE"/>
<path d="M334.279 260.036L335.563 259.18C335.563 259.18 327.434 254.474 324.011 257.041C320.588 259.608 319.733 261.748 318.877 262.604C318.021 263.459 315.882 268.166 317.166 269.878C318.449 271.589 318.021 271.94 318.877 273.476C319.733 275.012 317.382 281.192 323.905 283.023C330.429 284.854 335.563 277.152 336.418 275.44C337.274 273.729 340.269 262.176 334.279 260.036Z" fill="#46455B"/>
<path d="M662.875 380.981C662.875 428.351 692.589 466.683 729.309 466.683L662.875 380.981Z" fill="#1C2826"/>
<path d="M729.309 466.683C729.309 418.78 762.468 380.018 803.446 380.018L729.309 466.683Z" fill="#8F5A70"/>
<path d="M686.945 385.275C686.945 430.272 705.893 466.683 729.309 466.683L686.945 385.275Z" fill="#8F5A70"/>
<path d="M729.309 466.683C729.309 405.474 767.636 355.944 815 355.944L729.309 466.683Z" fill="#1C2826"/>
<path d="M715.333 467.287C715.333 467.287 724.755 466.997 727.594 464.975C730.433 462.953 742.087 460.538 742.791 463.781C743.495 467.024 756.95 479.911 746.313 479.997C735.676 480.083 721.598 478.34 718.764 476.613C715.93 474.887 715.333 467.287 715.333 467.287Z" fill="#ABA6AD"/>
<path opacity="0.2" d="M746.503 478.868C735.866 478.954 721.787 477.211 718.954 475.484C716.795 474.17 715.935 469.452 715.648 467.275C715.448 467.284 715.333 467.287 715.333 467.287C715.333 467.287 715.93 474.887 718.764 476.613C721.598 478.34 735.676 480.083 746.313 479.997C749.383 479.972 750.444 478.88 750.386 477.261C749.959 478.239 748.788 478.85 746.503 478.868Z" fill="black"/>
<path d="M220.915 478.846H411.303" stroke="#3F3D56" stroke-miterlimit="10"/>
<path d="M704.426 479.231H763.872" stroke="#3F3D56" stroke-miterlimit="10"/>
</g>
<defs>
<clipPath id="clip0">
<rect width="815" height="480" fill="white"/>
</clipPath>
</defs>
</svg>
